<svg xmlns="http://www.w3.org/2000/svg" width="256" height="256" viewBox="0 0 100 100"><rect width="100" height="100" rx="20" fill="#7d6ee7"></rect><path fill="#fff" d="M12.74 68.54L12.74 68.54Q10.10 68.54 10.10 66.38L10.10 66.38L10.10 32.48Q11.18 31.40 13.34 31.40L13.34 31.40Q14.78 31.40 15.80 31.97Q16.82 32.54 17.66 34.04L17.66 34.04L29.12 53.24Q29.84 54.50 30.62 55.91Q31.40 57.32 32.12 58.73Q32.84 60.14 33.47 61.37Q34.10 62.60 34.52 63.44L34.52 63.44L34.76 63.38Q34.28 58.52 34.19 53.60Q34.10 48.68 34.10 44L34.10 44L34.10 31.88Q34.46 31.76 35.06 31.61Q35.66 31.46 36.38 31.46L36.38 31.46Q39.02 31.46 39.02 33.62L39.02 33.62L39.02 67.58Q38.48 68.06 37.64 68.33Q36.80 68.60 35.78 68.60L35.78 68.60Q34.34 68.60 33.32 68.03Q32.30 67.46 31.46 65.96L31.46 65.96L20.06 46.76Q19.34 45.56 18.53 44.12Q17.72 42.68 16.97 41.30Q16.22 39.92 15.59 38.66Q14.96 37.40 14.54 36.56L14.54 36.56L14.30 36.62Q14.60 39.50 14.78 43.19Q14.96 46.88 14.96 50.18L14.96 50.18L14.96 68.12Q14.66 68.24 14.03 68.39Q13.40 68.54 12.74 68.54ZM65.90 40.82L65.90 40.82Q66.38 40.58 67.07 40.40Q67.76 40.22 68.60 40.22L68.60 40.22Q71.12 40.22 71.66 41.78L71.66 41.78Q72.74 45.02 73.70 47.90Q74.66 50.78 75.56 53.45Q76.46 56.12 77.30 58.70Q78.14 61.28 78.98 64.04L78.98 64.04L79.22 64.04Q80.06 60.02 80.90 56.15Q81.74 52.28 82.52 48.35Q83.30 44.42 84.02 40.37Q84.74 36.32 85.40 31.82L85.40 31.82Q86.24 31.40 87.44 31.40L87.44 31.40Q88.58 31.40 89.24 31.91Q89.90 32.42 89.90 33.44L89.90 33.44Q89.90 34.58 89.57 36.92Q89.24 39.26 88.67 42.29Q88.10 45.32 87.35 48.83Q86.60 52.34 85.76 55.73Q84.92 59.12 84.08 62.24Q83.24 65.36 82.46 67.58L82.46 67.58Q81.92 67.88 81.08 68.15Q80.24 68.42 79.16 68.42L79.16 68.42Q77.84 68.42 76.94 68Q76.04 67.58 75.74 66.86L75.74 66.86Q75.08 65.30 74.24 62.93Q73.40 60.56 72.47 57.71Q71.54 54.86 70.58 51.77Q69.62 48.68 68.72 45.62L68.72 45.62Q67.82 48.62 66.86 51.80Q65.90 54.98 64.97 57.95Q64.04 60.92 63.14 63.44Q62.24 65.96 61.52 67.64L61.52 67.64Q61.04 67.94 60.20 68.18Q59.36 68.42 58.28 68.42L58.28 68.42Q56.90 68.42 56.06 67.97Q55.22 67.52 54.92 66.86L54.92 66.86Q54.38 65.60 53.69 63.26Q53 60.92 52.25 57.95Q51.50 54.98 50.69 51.56Q49.88 48.14 49.13 44.75Q48.38 41.36 47.75 38.21Q47.12 35.06 46.70 32.54L46.70 32.54Q47.12 32.12 47.84 31.76Q48.56 31.40 49.40 31.40L49.40 31.40Q51.50 31.40 51.92 33.62L51.92 33.62Q52.70 37.40 53.42 40.91Q54.14 44.42 54.89 48.05Q55.64 51.68 56.48 55.58Q57.32 59.48 58.34 64.04L58.34 64.04L58.58 64.04Q59.42 61.34 60.20 58.91Q60.98 56.48 61.82 53.84Q62.66 51.20 63.65 48.08Q64.64 44.96 65.90 40.82Z"></path></svg>